<?xml version="1.0" encoding="UTF-8"?>
<svg id="_レイヤー_2" data-name="レイヤー 2" xmlns="http://www.w3.org/2000/svg" viewBox="0 0 354.99 68.92">
  <defs>
    <style>
      .cls-1 {
        fill: #d80c24;
      }
    </style>
  </defs>
  <g id="_レイヤー_1-2" data-name="レイヤー 1">
    <g>
      <path class="cls-1" d="m254.92,66.03l-15.55-37.85-8.32,39.36c-.14.66-.72,1.12-1.39,1.12h-14.51c-.9,0-1.57-.83-1.39-1.71L227.68,1.12c.14-.66.72-1.12,1.39-1.12h11.77c1.72,0,3.28,1.04,3.93,2.64l15.55,37.85,8.32-39.36c.14-.66.72-1.12,1.39-1.12h14.51c.9,0,1.57.83,1.39,1.71l-13.92,65.83c-.14.66-.72,1.12-1.39,1.12h-11.77c-1.72,0-3.28-1.04-3.93-2.64Z"/>
      <path class="cls-1" d="m80.19,11.57l-8.55,40.23c-1.88,8.84,4.89,17.16,13.93,17.12l30.32-.14c6.6-.03,12.31-4.62,13.76-11.06l3.11-13.81,5.45-26.54c1.81-8.79-4.91-17.02-13.88-17.02h-30.28c-6.69,0-12.47,4.68-13.86,11.23Zm27.83,42.24l-12.67-.02c-2.7,0-4.72-2.5-4.15-5.14l6.36-29.75c.42-1.96,2.15-3.36,4.16-3.36h12.67c2.71,0,4.72,2.49,4.16,5.14l-6.36,29.77c-.42,1.96-2.16,3.37-4.16,3.36Z"/>
      <path class="cls-1" d="m193.63,1.47l-10.21,48.95c-.41,1.97-2.15,3.39-4.17,3.38l-12.66-.02c-2.7,0-4.71-2.49-4.15-5.14l9.9-46.6c.19-.88-.49-1.71-1.39-1.71h-15.97c-.67,0-1.25.47-1.39,1.12l-10.7,50.34c-1.88,8.84,4.89,17.16,13.93,17.12l30.32-.14c6.6-.03,12.31-4.62,13.76-11.06l3.11-13.81,8.6-41.86c.18-.88-.49-1.7-1.39-1.7h-16.2c-.67,0-1.25.47-1.39,1.13Z"/>
      <path class="cls-1" d="m286.93,63.53l12.72-60.16c.42-1.97,2.15-3.37,4.16-3.37h20.98c9.49,0,16.89,2.66,22.21,7.98,5.32,5.32,7.98,12.69,7.98,22.12,0,7.57-1.67,14.25-5,20.05-3.33,5.8-8.16,10.34-14.47,13.61-6.32,3.27-13.7,4.91-22.17,4.91h-22.26c-2.7,0-4.72-2.49-4.16-5.13Zm28.15-10.45c6.28,0,11.33-2.08,15.15-6.25,3.81-4.17,5.72-9.68,5.72-16.54,0-4.87-1.11-8.54-3.32-11.01-2.21-2.47-5.5-3.7-9.86-3.7h-6.35c-.67,0-1.25.47-1.39,1.12l-7.38,34.67c-.19.88.48,1.71,1.39,1.71h6.04Z"/>
      <path class="cls-1" d="m9.45,11.56l-3.22,14.13c-2.02,8.87,4.72,17.33,13.82,17.33h20.75c2.74,0,4.76,2.55,4.14,5.21l-.69,2.98c-.45,1.93-2.17,3.3-4.15,3.29l-16.47-.04c-2.6,0-4.53-2.41-3.97-4.95l.16-.74h0s-18.84,0-18.84,0h0s-.64,2.89-.64,2.89c-1.95,8.85,4.78,17.22,13.84,17.22h30.71c6.59,0,12.32-4.55,13.81-10.97l2.95-12.72c2.06-8.89-4.68-17.38-13.81-17.38h-18.19c-2.72,0-4.74-2.52-4.15-5.18l.87-3.9c.43-1.94,2.16-3.32,4.15-3.32h13.17c2.6,0,4.54,2.41,3.98,4.95h0,0s18.84,0,18.84,0h0s.62-2.8.62-2.8C69.09,8.68,62.3.28,53.2.34c-9.75.06-21.55.14-30.03.2-6.58.04-12.26,4.61-13.72,11.02Z"/>
    </g>
  </g>
</svg>