<?xml version="1.0" encoding="UTF-8"?>
<svg id="_レイヤー_2" data-name="レイヤー 2" xmlns="http://www.w3.org/2000/svg" viewBox="0 0 282.3 68.66">
  <defs>
    <style>
      .cls-1 {
        fill: #d61619;
      }

      .cls-2 {
        fill: #d80c24;
      }
    </style>
  </defs>
  <g id="_レイヤー_1-2" data-name="レイヤー 1">
    <g>
      <g>
        <path class="cls-2" d="m102.96,11.31l-8.55,40.23c-1.88,8.84,4.89,17.16,13.93,17.12l30.32-.14c6.6-.03,12.31-4.62,13.76-11.06l3.11-13.81,5.45-26.54c1.81-8.79-4.91-17.02-13.88-17.02h-30.28c-6.69,0-12.47,4.68-13.86,11.23Zm27.83,42.24l-12.67-.02c-2.7,0-4.72-2.5-4.15-5.14l6.36-29.75c.42-1.96,2.15-3.36,4.16-3.36h12.67c2.71,0,4.72,2.49,4.16,5.14l-6.36,29.77c-.42,1.96-2.16,3.37-4.16,3.36Z"/>
        <path class="cls-2" d="m185.78,43.66l-5.05,23.88c-.14.66-.72,1.12-1.39,1.12h-15.28c-.9,0-1.57-.83-1.39-1.71L176.6,1.12c.14-.66.72-1.12,1.39-1.12h44.13c.9,0,1.57.83,1.39,1.71l-2.67,12.55c-.14.65-.72,1.12-1.39,1.12h-27.7l-2.69,12.89h25.37c.9,0,1.57.83,1.39,1.71l-2.67,12.55c-.14.65-.72,1.12-1.39,1.12h-25.97Z"/>
        <path class="cls-2" d="m244.54,43.66l-5.05,23.88c-.14.66-.72,1.12-1.39,1.12h-15.28c-.9,0-1.57-.83-1.39-1.71L235.36,1.12c.14-.66.72-1.12,1.39-1.12h44.13c.9,0,1.57.83,1.39,1.71l-2.67,12.55c-.14.65-.72,1.12-1.39,1.12h-27.7l-2.69,12.89h25.37c.9,0,1.57.83,1.39,1.71l-2.67,12.55c-.14.65-.72,1.12-1.39,1.12h-25.97Z"/>
      </g>
      <g>
        <path class="cls-1" d="m16.4,22.18H6.82c-1.41,0-2.62.98-2.91,2.36L.07,42.6c-.39,1.85,1.02,3.6,2.91,3.6h8.92c.15,0,.29.03.42.1l21.92,10.35c.58.27,1.26-.06,1.39-.69l9.15-43.02c.16-.77-.59-1.42-1.33-1.13l-26.69,10.32c-.11.04-.24.07-.36.07Z"/>
        <path class="cls-1" d="m79.62,25.57l-3.45-4.38c-.34-.44-.98-.51-1.41-.15l-10,8.24-6.37-8.09c-.34-.44-.98-.51-1.41-.15l-5.67,4.68c-.42.34-.48.96-.15,1.38l6.4,8.13-10.03,8.27c-.42.34-.48.96-.15,1.38l3.45,4.38c.34.44.98.51,1.41.15l10-8.24,6.37,8.09c.34.44.98.51,1.41.15l5.67-4.68c.42-.34.48-.96.15-1.38l-5.8-7.36c-.33-.42-.27-1.04.15-1.38l9.28-7.65c.42-.34.48-.96.15-1.38Z"/>
      </g>
    </g>
  </g>
</svg>