<?xml version="1.0" encoding="UTF-8"?>
<svg id="_レイヤー_2" data-name="レイヤー 2" xmlns="http://www.w3.org/2000/svg" viewBox="0 0 234.84 69.09">
  <defs>
    <style>
      .cls-1 {
        fill: #d80c24;
      }
    </style>
  </defs>
  <g id="_レイヤー_2-2" data-name="レイヤー 2">
    <g>
      <path class="cls-1" d="m190.93,45l-4.76,22.53c-.14.66-.72,1.12-1.39,1.12h-14.7c-.9,0-1.57-.83-1.39-1.71l13.44-63.57C182.55,1.4,184.29,0,186.3,0l34.39.1c9,.03,15.69,8.32,13.82,17.12l-3.75,17.1c-1.4,6.58-6.28,10.72-13.01,10.65,0,0-26.83.03-26.83.03Zm24.39-17.62c.52-2.26,1.11-4.81,1.83-7.96.6-2.66-1.42-5.19-4.15-5.19h-15.53l-3.46,16.45h17.17c1.98,0,3.7-1.36,4.14-3.29Z"/>
      <path class="cls-1" d="m136.77,66.95L150.69,1.12c.14-.66.72-1.12,1.39-1.12h15.57c.9,0,1.57.83,1.39,1.71l-13.92,65.83c-.14.66-.72,1.12-1.39,1.12h-15.57c-.9,0-1.57-.83-1.39-1.71Z"/>
      <path class="cls-1" d="m109.22,67.72l-10.05-28.48-9.04,8.37-4.28,19.94c-.14.65-.72,1.12-1.39,1.12h-15.57c-.9,0-1.57-.83-1.39-1.71L81.42,1.12c.14-.66.72-1.12,1.39-1.12h15.57c.9,0,1.57.83,1.39,1.71l-4.74,22.62L120.01.39c.26-.25.62-.39.98-.39h16.61c1.27,0,1.9,1.55.99,2.44l-25.47,24.68,15.22,39.62c.36.93-.33,1.93-1.32,1.93h-16.46c-.6,0-1.14-.38-1.34-.95Z"/>
      <path class="cls-1" d="m9.45,11.76l-3.22,14.13c-2.02,8.87,4.72,17.33,13.82,17.33h20.75c2.74,0,4.76,2.55,4.14,5.21l-.69,2.98c-.45,1.93-2.17,3.3-4.15,3.29l-16.47-.04c-2.6,0-4.53-2.41-3.97-4.95l.16-.74h0s-18.84,0-18.84,0h0s-.64,2.89-.64,2.89c-1.95,8.85,4.78,17.22,13.84,17.22h30.71c6.59,0,12.32-4.55,13.81-10.97l2.95-12.72c2.06-8.89-4.68-17.38-13.81-17.38h-18.19c-2.72,0-4.74-2.52-4.15-5.18l.87-3.9c.43-1.94,2.16-3.32,4.15-3.32h13.17c2.6,0,4.54,2.41,3.98,4.95h0,0s18.84,0,18.84,0h0s.62-2.8.62-2.8c1.96-8.88-4.83-17.28-13.93-17.22-9.75.06-21.55.14-30.03.2-6.58.04-12.26,4.61-13.72,11.02Z"/>
    </g>
  </g>
</svg>