<?xml version="1.0" encoding="UTF-8"?>
<svg id="_レイヤー_2" data-name="レイヤー 2" xmlns="http://www.w3.org/2000/svg" viewBox="0 0 248.66 68.66">
  <defs>
    <style>
      .cls-1 {
        fill: #d61619;
      }

      .cls-2 {
        fill: #d80c24;
      }
    </style>
  </defs>
  <g id="_レイヤー_1-2" data-name="レイヤー 1">
    <g>
      <path class="cls-2" d="m217.62,66.03l-15.55-37.85-8.32,39.36c-.14.66-.72,1.12-1.39,1.12h-14.51c-.9,0-1.57-.83-1.39-1.71L190.38,1.12c.14-.66.72-1.12,1.39-1.12h11.77c1.72,0,3.28,1.04,3.93,2.64l15.55,37.85L231.35,1.12c.14-.66.72-1.12,1.39-1.12h14.51c.9,0,1.57.83,1.39,1.71l-13.92,65.83c-.14.66-.72,1.12-1.39,1.12h-11.77c-1.72,0-3.28-1.04-3.93-2.64Z"/>
      <path class="cls-2" d="m118.11,11.27l-8.55,40.23c-1.88,8.84,4.89,17.16,13.93,17.12l30.32-.14c6.6-.03,12.31-4.62,13.76-11.06l3.11-13.81,5.45-26.54C177.94,8.28,171.22.04,162.25.04h-30.28c-6.69,0-12.47,4.68-13.86,11.23Zm27.83,42.24l-12.67-.02c-2.7,0-4.72-2.5-4.15-5.14l6.36-29.75c.42-1.96,2.15-3.36,4.16-3.36h12.67c2.71,0,4.72,2.49,4.16,5.14l-6.36,29.77c-.42,1.96-2.16,3.37-4.16,3.36Z"/>
      <path class="cls-1" d="m70.12,8.51c-.84,0-1.29.98-.76,1.63,6.21,7.57,8.64,17.87,6.36,28.02-1.98,8.84-7.1,15.9-14.15,19.85-.89.5-.53,1.85.49,1.85h9.75c.83,0,1.61-.35,2.18-.95,4.8-5,8.26-11.47,9.93-18.91,2.36-10.53.66-21.21-4.44-30-.54-.92-1.52-1.5-2.59-1.5h-6.77Z"/>
      <path class="cls-1" d="m54.85,17.44c-.78,0-1.25.86-.83,1.52,3.2,5.17,4.3,11.6,2.87,17.97-1.41,6.29-5.03,11.33-10.01,14.2-.87.5-.5,1.84.51,1.84h9.09c.9,0,1.75-.41,2.32-1.1,2.99-3.64,5.16-8.09,6.29-13.1,1.51-6.71.91-13.49-1.52-19.49-.45-1.12-1.55-1.84-2.76-1.84h-5.96Z"/>
      <path class="cls-1" d="m16.4,22.03H6.82c-1.41,0-2.62.98-2.91,2.36L.07,42.45c-.39,1.85,1.02,3.6,2.91,3.6h8.92c.15,0,.29.03.42.1l21.92,10.35c.58.27,1.26-.06,1.39-.69l9.15-43.02c.16-.77-.59-1.42-1.33-1.13l-26.69,10.32c-.11.04-.24.07-.36.07Z"/>
    </g>
  </g>
</svg>